<?xml version="1.0" encoding="utf-8"?>
<!-- Generator: Adobe Illustrator 28.0.0, SVG Export Plug-In . SVG Version: 6.00 Build 0)  -->
<svg version="1.1" id="Capa_1" xmlns="http://www.w3.org/2000/svg" xmlns:xlink="http://www.w3.org/1999/xlink" x="0px" y="0px"
	 viewBox="0 0 792 612" style="enable-background:new 0 0 792 612;" xml:space="preserve">
<style type="text/css">
	.st0{fill:#BCBCBC;stroke:#FFFFFF;stroke-miterlimit:10;}
	.st1{fill:none;stroke:#717274;stroke-width:0.25;stroke-miterlimit:10;}
	.st2{fill:#9EA2A4;}
	.st3{font-family:'CenturyGothic';}
	.st4{font-size:11.9096px;}
	.st5{fill:none;stroke:#FFFFFF;stroke-miterlimit:10;}
</style>
<polygon id="LaEstanciaArgentina" class="st0" points="582.81,481.66 582.81,508.86 555.02,524.74 505.44,496.11 505.44,468.74 
	505.92,468.46 532.55,452.69 "/>
<polygon id="ElPrimo" class="st0" points="260.49,105.92 256.45,108.26 199.67,141.14 199.29,177.38 161.03,154.83 161.79,119.35 
	222.99,84.13 "/>
<polygon class="st0" points="199.67,141.14 199.67,141.78 199.29,177.38 "/>
<polygon class="st0" points="199.67,141.14 199.67,141.78 199.29,177.38 "/>
<polygon id="Temakase" class="st0" points="289.12,127.33 289.12,139.75 287.09,139.75 248.96,161.67 249.47,185.74 231.73,196.26 
	199.29,177.38 199.67,141.78 199.67,141.14 256.45,108.26 "/>
<polygon id="Holyshakes" class="st0" points="312.94,143.17 264.92,171.3 264.8,207.03 249.85,197.4 248.96,161.67 287.09,139.75 
	307.24,140.26 "/>
<polygon id="TeaLeaf" class="st0" points="328.65,152.17 280.95,180.17 280.95,215.77 264.8,207.03 264.92,171.3 312.94,143.17 "/>
<polygon id="Mitchs" class="st0" points="358.17,169.65 311.29,197.65 310.66,233.25 280.95,215.77 280.95,180.17 328.65,152.17 "/>
<polygon id="TheWagyu" class="st0" points="400.24,193.53 400.24,229.2 352.85,256.44 310.66,233.25 311.29,197.65 358.17,169.65 
	"/>
<polygon id="MiamiSwimmingAcademy" class="st0" points="493.36,292.04 447.24,318.39 398.97,290.65 398.97,257.58 444.45,230.97 
	492.6,259.1 "/>
<polygon id="Crema" class="st0" points="510.21,333.34 510.21,388.08 486.14,412.15 449.9,399.73 449.9,344.87 473.13,320.42 "/>
<polygon id="DrunkenDragon" class="st0" points="200.56,188.32 200.56,217.54 188.69,224.13 178.05,212.98 122.47,245.25 
	122.47,262.81 112.17,268.39 41.89,227.51 42.57,198.96 130.75,147.6 "/>
<polygon id="Attar" class="st0" points="212.34,249.81 171.8,273.8 171.12,300.82 122.47,272.61 122.47,245.25 178.05,212.98 "/>
<polygon id="Murano" class="st0" points="250.52,290.69 250.52,318.05 225.86,331.91 171.12,300.82 171.8,273.8 212.34,249.81 "/>
<polygon id="Holi" class="st0" points="323.67,332.75 297.7,349.45 297.82,375.32 269.27,358.6 269.27,331.91 295.12,315.69 "/>
<polygon id="Disponible" class="st0" points="345.63,345.59 320.17,362.29 319.44,387.49 297.82,375.32 297.7,349.45 323.67,332.75 
	"/>
<polygon id="GelatoGo" class="st0" points="362.52,355.22 338.03,371.77 338.03,398.3 319.44,387.49 320.17,362.29 345.63,345.59 
	"/>
<path id="Anderson" class="st0" d="M363.2,387.49l0.04,25.42c-0.08-0.17-25.21-14.61-25.21-14.61v-26.53l24.49-16.55l28.28,16.49
	L363.2,387.49z"/>
<polygon class="st0" points="390.9,371.77 363.2,387.49 390.8,371.71 "/>
<polygon class="st0" points="432.54,412.49 432.54,412.91 420.82,419.43 "/>
<polygon id="LaPiazzeta" class="st0" points="432.54,395.11 432.54,412.49 420.82,419.43 420.82,429.32 404.48,438.69 
	363.24,415.25 363.24,412.91 363.2,387.49 390.9,371.77 390.8,371.71 391.43,371.35 "/>
<polygon class="st0" points="390.9,371.77 363.2,387.49 390.8,371.71 "/>
<polygon id="Doggis" class="st0" points="500.54,434.19 474.45,449.76 473.97,450.05 473.93,450.07 473.13,477.52 420.82,447.03 
	420.82,419.43 432.54,412.91 432.54,412.49 434.4,411.39 437.61,413.58 451.04,405.65 "/>
<polygon class="st0" points="432.54,412.49 432.54,412.91 420.82,419.43 "/>
<polygon id="TheBluesBurgers" class="st0" points="671.88,501.98 630.07,525.92 595.86,506.16 596.36,478.67 639.57,454.21 
	671.24,474.72 "/>
<polygon id="JuiceMafia" class="st0" points="686.45,493.36 671.88,501.98 670.09,474.13 639.57,454.21 652.49,445.72 
	685.69,466.25 "/>
<polygon id="DrLimon" class="st0" points="730.28,467.52 686.45,493.36 684.25,465.79 652.49,445.72 696.2,420 729.14,439.77 "/>
<polygon id="RepublicaCigarLounge" class="st0" points="770.95,415.57 737.12,395.8 696.2,420 729.14,439.77 730.28,467.51 
	771.46,443.12 "/>
<line class="st1" x1="208.28" y1="338.85" x2="387.37" y2="442.59"/>
<text transform="matrix(0.8483 0.5295 -0.5295 0.8483 281.5017 403.176)" class="st2 st3 st4">US1</text>
<line class="st1" x1="379.99" y1="160.63" x2="559.08" y2="264.37"/>
<text transform="matrix(0.8573 0.5148 -0.5148 0.8573 456.038 193.9318)" class="st2 st3 st4">Parking</text>
<line class="st1" x1="31.24" y1="181.26" x2="209.3" y2="75.77"/>
<text transform="matrix(0.8683 -0.496 0.496 0.8683 63.3122 147.6443)" class="st2 st3 st4">Northeast 6th Street</text>
<line class="st1" x1="640.75" y1="540.8" x2="776.57" y2="457.29"/>
<text transform="matrix(0.8533 -0.5215 0.5215 0.8533 673.0105 542.2059)" class="st2 st3 st4">Atlantic Shrares Blv</text>
<polygon id="Sokai" class="st0" points="532.55,452.69 506.09,468.36 505.92,468.46 505.44,468.74 505.44,496.11 473.13,477.52 
	473.93,450.07 473.97,450.05 474.45,449.76 500.54,434.19 "/>
<line class="st5" x1="474.45" y1="449.76" x2="421.91" y2="418.87"/>
<line class="st5" x1="505.44" y1="468.74" x2="473.93" y2="450.07"/>
<line class="st5" x1="447.24" y1="317.79" x2="447.75" y2="285.45"/>
<line class="st5" x1="491.97" y1="259.47" x2="447.75" y2="285.45"/>
<line class="st5" x1="400.08" y1="258.21" x2="447.75" y2="285.45"/>
<g>
	<line class="st0" x1="628.42" y1="498.34" x2="770.12" y2="415.73"/>
	<line class="st0" x1="628.91" y1="498.34" x2="629.49" y2="525.18"/>
	<line class="st5" x1="595.53" y1="478.83" x2="629.49" y2="498.34"/>
	<line class="st5" x1="403.65" y1="437.89" x2="403.65" y2="411.55"/>
	<line class="st5" x1="431.09" y1="395.62" x2="403.65" y2="411.55"/>
	<line class="st5" x1="268.44" y1="332.07" x2="403.65" y2="411.55"/>
	<line class="st5" x1="556.29" y1="524.85" x2="556.29" y2="498.52"/>
	<line class="st5" x1="583.73" y1="482.59" x2="556.29" y2="498.52"/>
	<line class="st5" x1="556.29" y1="498.52" x2="505.26" y2="468.52"/>
	<line class="st5" x1="225.02" y1="331.14" x2="225.53" y2="305.38"/>
	<line class="st5" x1="249.08" y1="291.22" x2="225.53" y2="305.38"/>
	<line class="st5" x1="121.64" y1="245.41" x2="225.53" y2="305.38"/>
	<line class="st5" x1="111.33" y1="267.91" x2="111.33" y2="240.34"/>
	<line class="st5" x1="198.84" y1="189" x2="111.33" y2="240.34"/>
	<line class="st5" x1="42.54" y1="199.59" x2="111.33" y2="240.34"/>
	<line class="st5" x1="230.92" y1="195.59" x2="231.91" y2="160.56"/>
	<line class="st5" x1="287.6" y1="127.9" x2="231.91" y2="160.56"/>
	<line class="st5" x1="161.45" y1="119.79" x2="231.91" y2="160.56"/>
	<line class="st5" x1="352.02" y1="255.91" x2="351.51" y2="221.37"/>
	<line class="st5" x1="398.83" y1="193.69" x2="351.51" y2="221.37"/>
	<line class="st5" x1="248.13" y1="161.83" x2="351.51" y2="221.37"/>
	<line class="st5" x1="485.3" y1="411.55" x2="485.3" y2="356.94"/>
	<line class="st5" x1="508.59" y1="334.27" x2="485.3" y2="356.94"/>
	<line class="st5" x1="449.76" y1="345.03" x2="485.3" y2="356.94"/>
</g>
</svg>
