<?xml version="1.0" encoding="utf-8"?>
<!-- Generator: Adobe Illustrator 28.0.0, SVG Export Plug-In . SVG Version: 6.00 Build 0)  -->
<svg version="1.1" id="Capa_1" xmlns="http://www.w3.org/2000/svg" xmlns:xlink="http://www.w3.org/1999/xlink" x="0px" y="0px"
	 viewBox="0 0 620.3 1424.11" style="enable-background:new 0 0 620.3 1424.11;" xml:space="preserve">
<style type="text/css">
	.st0{fill:#BCBCBC;}
	.st1{opacity:0.3;fill:none;stroke:#000000;stroke-width:0.25;stroke-miterlimit:10;}
	.st2{opacity:0.4;}
	.st3{font-family:'CenturyGothic';}
	.st4{font-size:20.892px;}
	.st5{opacity:0.3;}
</style>
<path id="Holi" class="st0" d="M166.13,616.96h-51.96c-2.52,0-4.57-2.04-4.57-4.57v-54.64c0-2.52,2.04-4.57,4.57-4.57h51.96
	c2.52,0,4.57,2.04,4.57,4.57v54.64C170.69,614.92,168.65,616.96,166.13,616.96z"/>
<path id="Diponible" class="st0" d="M166.16,682.93H114.2c-2.52,0-4.57-2.04-4.57-4.57v-52.29c0-2.52,2.04-4.57,4.57-4.57h51.96
	c2.52,0,4.57,2.04,4.57,4.57v52.29C170.73,680.89,168.68,682.93,166.16,682.93z"/>
<path id="GelatoGo" class="st0" d="M166.16,727.76H114.2c-2.52,0-4.57-2.04-4.57-4.57l0.03-31.75c0-2.52,2.04-4.57,4.57-4.57h51.96
	c2.52,0,4.57,2.04,4.57,4.57l-0.03,31.75C170.73,725.71,168.68,727.76,166.16,727.76z"/>
<path id="Anderson" class="st0" d="M166.16,795.29H114.2c-2.52,0-4.57-2.04-4.57-4.57v-54.89c0-2.52,2.04-4.57,4.57-4.57h51.96
	c2.52,0,4.57,2.04,4.57,4.57v54.89C170.73,793.24,168.68,795.29,166.16,795.29z"/>
<path class="st0" d="M166.16,869.82H114.2c-2.52,0-4.57-2.04-4.57-4.57v-62.38c0-2.52,2.04-4.57,4.57-4.57h51.96
	c2.52,0,4.57,2.04,4.57,4.57v62.38C170.73,867.78,168.68,869.82,166.16,869.82z"/>
<path id="LaPiazzatta" class="st0" d="M166.11,869.54h-51.96c-2.52,0-4.57-2.04-4.57-4.57v-26.64c0-2.52,2.04-4.57,4.57-4.57h51.96
	c2.52,0,4.57,2.04,4.57,4.57v26.64C170.67,867.5,168.63,869.54,166.11,869.54z"/>
<path id="Doggis" class="st0" d="M170.66,1029.44v-30.9c0.01-0.11,0.03-0.22,0.03-0.34v-6.09c0-0.12-0.03-0.23-0.03-0.34v-29.62
	c0-2.52-2.04-4.57-4.57-4.57h-25.91v-12.66c0-2.52-2.04-4.57-4.57-4.57H114.2c-2.52,0-4.57,2.04-4.57,4.57v17.23v9.41v38.28
	c-0.03,0.21-0.07,0.43-0.07,0.65v18.95c0,2.52,2.04,4.57,4.57,4.57h0.07h51.83h0.07C168.62,1034.01,170.66,1031.96,170.66,1029.44z"
	/>
<path id="Sokai" class="st0" d="M165.42,1129.23h-51.89c-2.52,0-4.57-2.04-4.57-4.57v-81.36c0-2.52,2.04-4.57,4.57-4.57h51.89
	c2.52,0,4.57,2.04,4.57,4.57v81.36C169.99,1127.18,167.94,1129.23,165.42,1129.23z"/>
<path id="LaEstaciaArgentina" class="st0" d="M165.42,1247.79h-51.89c-2.52,0-4.57-2.04-4.57-4.57v-104.84
	c0-2.52,2.04-4.57,4.57-4.57h51.89c2.52,0,4.57,2.04,4.57,4.57v104.84C169.99,1245.75,167.94,1247.79,165.42,1247.79z"/>
<path id="TheBluesBurgers" class="st0" d="M274.25,1336.48l-80.73,0.25c-2.52,0-4.57-2.04-4.57-4.57v-62.32
	c0-2.52,2.04-4.57,4.57-4.57l80.73-0.25c2.52,0,4.57,2.04,4.57,4.57v62.32C278.81,1334.44,276.77,1336.48,274.25,1336.48z"/>
<path id="JuiceMafia" class="st0" d="M318.93,1337.22c2.52,0,3.57-2.04,3.57-4.57v-59.55c0-2.52-1.04-4.57-3.57-4.57h-5.11
	c0,0,0,0,0,0l-22.72-0.25c-4.48,0-8.11,2.04-8.11,4.57v59.55c0,2.52,3.63,4.57,8.11,4.57l16.66,0.2c0.15,0.02,0.3,0.05,0.45,0.05
	H318.93z"/>
<path id="DrLimon" class="st0" d="M382.25,1337.22c2.52,0,4.57-2.04,4.57-4.57v-59.55c0-2.52-2.04-4.57-4.57-4.57h-5.11c0,0,0,0,0,0
	l-43.72-0.25c-4.48,0-8.11,2.04-8.11,4.57v59.55c0,2.52,3.63,4.57,8.11,4.57l37.66,0.2c0.15,0.02,0.3,0.05,0.45,0.05H382.25z"/>
<path id="RepublicaCigarLounge" class="st0" d="M479.03,1332.65v-69.5c0-2.52-1.29-4.57-2.88-4.57h-53.21
	c-1.59,0-2.88,2.04-2.88,4.57v5.38h-0.05h-11.34h-16.15c-1.59,0-2.88,2.04-2.88,4.57v59.55c0,2.52,1.29,4.57,2.88,4.57h16.15h11.34
	h2.93h5.77h47.43C477.74,1337.22,479.03,1335.17,479.03,1332.65z"/>
<line class="st1" x1="549.46" y1="15.59" x2="109.47" y2="15.59"/>
<line class="st1" x1="549.46" y1="65.01" x2="109.47" y2="65.01"/>
<line class="st1" x1="549.46" y1="1354.43" x2="109.47" y2="1354.43"/>
<line class="st1" x1="549.46" y1="1403.84" x2="109.47" y2="1403.84"/>
<text transform="matrix(1 0 0 1 221.1377 46.7924)" class="st2 st3 st4">Northeast 6th Street</text>
<text transform="matrix(1 0 0 1 221.1377 1387.3627)" class="st2 st3 st4">Atlantic Shares Blv</text>
<g>
	<line class="st1" x1="74.61" y1="1363.71" x2="74.61" y2="109.86"/>
	<line class="st1" x1="28.68" y1="1333.7" x2="28.68" y2="79.84"/>
	<text transform="matrix(6.123234e-17 1 -1 6.123234e-17 43.9541 632.5092)" class="st2 st3 st4">US 1 </text>
</g>
<g>
	<text transform="matrix(6.123234e-17 1 -1 6.123234e-17 580.5283 672.0834)" class="st5 st3 st4">parking</text>
	<line class="st1" x1="596.59" y1="664.52" x2="576" y2="664.52"/>
	<line class="st1" x1="596.59" y1="655.82" x2="576" y2="655.82"/>
	<line class="st1" x1="596.59" y1="647.11" x2="576" y2="647.11"/>
	<line class="st1" x1="596.59" y1="638.41" x2="576" y2="638.41"/>
	<line class="st1" x1="596.59" y1="629.7" x2="576" y2="629.7"/>
	<line class="st1" x1="596.59" y1="621" x2="576" y2="621"/>
	<line class="st1" x1="596.59" y1="612.29" x2="576" y2="612.29"/>
	<line class="st1" x1="596.59" y1="603.59" x2="576" y2="603.59"/>
	<line class="st1" x1="596.59" y1="594.88" x2="576" y2="594.88"/>
	<line class="st1" x1="596.59" y1="586.18" x2="576" y2="586.18"/>
	<line class="st1" x1="596.59" y1="577.47" x2="576" y2="577.47"/>
	<line class="st1" x1="596.59" y1="568.77" x2="576" y2="568.77"/>
	<line class="st1" x1="596.59" y1="560.06" x2="576" y2="560.06"/>
	<line class="st1" x1="596.59" y1="551.36" x2="576" y2="551.36"/>
	<line class="st1" x1="596.59" y1="542.65" x2="576" y2="542.65"/>
	<line class="st1" x1="596.59" y1="533.95" x2="576" y2="533.95"/>
	<line class="st1" x1="596.59" y1="525.24" x2="576" y2="525.24"/>
	<line class="st1" x1="596.59" y1="516.54" x2="576" y2="516.54"/>
	<line class="st1" x1="596.59" y1="507.83" x2="576" y2="507.83"/>
	<line class="st1" x1="596.59" y1="499.13" x2="576" y2="499.13"/>
	<line class="st1" x1="596.59" y1="789.88" x2="576" y2="789.88"/>
	<line class="st1" x1="596.59" y1="781.17" x2="576" y2="781.17"/>
	<line class="st1" x1="596.59" y1="772.47" x2="576" y2="772.47"/>
	<line class="st1" x1="596.59" y1="763.76" x2="576" y2="763.76"/>
	<line class="st1" x1="596.59" y1="755.06" x2="576" y2="755.06"/>
	<line class="st1" x1="596.59" y1="833.4" x2="576" y2="833.4"/>
	<line class="st1" x1="596.59" y1="824.7" x2="576" y2="824.7"/>
	<line class="st1" x1="596.59" y1="815.99" x2="576" y2="815.99"/>
	<line class="st1" x1="596.59" y1="807.29" x2="576" y2="807.29"/>
	<line class="st1" x1="596.59" y1="798.58" x2="576" y2="798.58"/>
	<line class="st1" x1="596.59" y1="868.22" x2="576" y2="868.22"/>
	<line class="st1" x1="596.59" y1="859.52" x2="576" y2="859.52"/>
	<line class="st1" x1="596.59" y1="850.81" x2="576" y2="850.81"/>
	<line class="st1" x1="596.59" y1="842.11" x2="576" y2="842.11"/>
	<line class="st1" x1="596.59" y1="920.45" x2="576" y2="920.45"/>
	<line class="st1" x1="596.59" y1="911.75" x2="576" y2="911.75"/>
	<line class="st1" x1="596.59" y1="903.04" x2="576" y2="903.04"/>
	<line class="st1" x1="596.59" y1="894.34" x2="576" y2="894.34"/>
	<line class="st1" x1="596.59" y1="885.63" x2="576" y2="885.63"/>
	<line class="st1" x1="596.59" y1="876.93" x2="576" y2="876.93"/>
</g>
<path id="Holyshakes" class="st0" d="M504.81,289.37c-5.26-5.5-10.39-11.14-15.41-16.87c-1.75-2-3.62-3-6.29-2.99
	c-27.95,0.04-55.9,0.02-83.85,0.04c-3.9,0-4.43,0.53-4.44,4.4c-0.04,8.44-0.02,16.88-0.01,25.31c0,0.71,0.02,1.41,0.13,2.1h112.15
	c-0.02-1.74-0.06-3.48,0.16-5.19C507.6,293.39,506.73,291.38,504.81,289.37z"/>
<path id="TeaLeaf" class="st0" d="M502.46,340.95H399.85c-2.56,0-4.63-2.07-4.63-4.63v-23.46c0-2.56,2.07-4.63,4.63-4.63h102.61
	c2.56,0,4.63,2.07,4.63,4.63v23.46C507.09,338.88,505.02,340.95,502.46,340.95z"/>
<path id="Mitchs" class="st0" d="M501.73,408.1H400.12c-2.83,0-5.13-2.3-5.13-5.13v-50.92c0-2.83,2.3-5.13,5.13-5.13h101.61
	c2.83,0,5.13,2.3,5.13,5.13v50.92C506.86,405.8,504.56,408.1,501.73,408.1z"/>
<path id="TheWagyu" class="st0" d="M502.06,508.11H399.33c-2.52,0-4.57-2.04-4.57-4.57v-85.01c0-2.52,2.04-4.57,4.57-4.57h102.74
	c2.52,0,4.57,2.04,4.57,4.57v85.01C506.63,506.06,504.59,508.11,502.06,508.11z"/>
<path id="MiamiSwimmingAcademy" class="st0" d="M501.64,706.17H398.9c-2.52,0-4.57-2.04-4.57-4.57v-88.29
	c0-2.52,2.04-4.57,4.57-4.57h102.74c2.52,0,4.57,2.04,4.57,4.57v88.29C506.21,704.13,504.16,706.17,501.64,706.17z"/>
<path id="Temakase" class="st0" d="M518.95,247.54H383.64c-2.52,0-4.57-2.04-4.57-4.57v-65.3c0-2.52,2.04-4.57,4.57-4.57h135.31
	c2.52,0,4.57,2.04,4.57,4.57v65.3C523.51,245.5,521.47,247.54,518.95,247.54z"/>
<path id="DrunkenDragon" class="st0" d="M313.27,244.56h-197.6c-2.52,0-4.57-2.04-4.57-4.57V86.02c0-2.52,2.04-4.57,4.57-4.57h197.6
	c2.52,0,4.57,2.04,4.57,4.57v153.98C317.83,242.51,315.79,244.56,313.27,244.56z"/>
<path id="Attar" class="st0" d="M205.2,374.6h-89.53c-2.52,0-4.57-2.04-4.57-4.57l-0.38-97.16c0-2.52,2.04-4.57,4.57-4.57
	l121.59-1.08c2.52,0,4.57,2.04,4.57,4.57l-31.68,98.24C209.77,372.56,207.72,374.6,205.2,374.6z"/>
<path id="Murano" class="st0" d="M165.96,502.23h-51.41c-2.52,0-4.57-2.04-4.57-4.57l0.75-111.57c0-2.52,2.04-4.57,4.57-4.57
	l86.81-1.08c2.52,0,4.57,2.04,4.57,4.57l-36.15,112.64C170.52,500.18,168.48,502.23,165.96,502.23z"/>
<path id="ElPrimo" class="st0" d="M517.86,81.45h-55.88h-6.35h-72.94c-2.52,0-4.57,2.04-4.57,4.57v78.06c0,2.52,2.04,4.57,4.57,4.57
	h79.3c2.52,0,4.57-2.04,4.57-4.57v-53.57h51.32c2.52,0,4.57-2.04,4.57-4.57V86.02C522.43,83.5,520.38,81.45,517.86,81.45z"/>
<path id="Crema" class="st0" d="M310.38,900.82l-63.92,16.35c-2.44,0.62-4.93-0.85-5.55-3.29l-14.82-57.94
	c-0.62-2.44,0.85-4.93,3.29-5.55l63.92-16.35c2.44-0.62,4.93,0.85,5.55,3.29l14.82,57.94C314.3,897.71,312.82,900.19,310.38,900.82z
	"/>
</svg>
