<?xml version="1.0" encoding="utf-8"?>
<!-- Generator: Adobe Illustrator 28.0.0, SVG Export Plug-In . SVG Version: 6.00 Build 0)  -->
<svg version="1.1" id="Capa_1" xmlns="http://www.w3.org/2000/svg" xmlns:xlink="http://www.w3.org/1999/xlink" x="0px" y="0px"
	 viewBox="0 0 792 612" style="enable-background:new 0 0 792 612;" xml:space="preserve">
<style type="text/css">
	.st0{fill:#BCBCBC;stroke:#FFFFFF;stroke-miterlimit:10;}
	.st1{fill:none;stroke:#717274;stroke-width:0.25;stroke-miterlimit:10;}
	.st2{fill:#9EA2A4;}
	.st3{font-family:'CenturyGothic';}
	.st4{font-size:11.9096px;}
	.st5{fill:none;stroke:#FFFFFF;stroke-miterlimit:10;}
</style>
<polygon id="LaMisonH" class="st0" points="270.47,124.9 266.4,127.26 209.2,160.39 208.81,196.9 170.26,174.18 171.03,138.44 
	232.69,102.95 "/>
<polygon id="Zenzone" class="st0" points="299.32,146.48 299.32,158.99 297.28,158.99 258.86,181.08 259.37,205.33 241.49,215.93 
	208.81,196.9 209.2,160.39 266.4,127.26 "/>
<polygon id="Genias_00000161623576810904111320000003944455962726520451_" class="st0" points="323.32,162.44 274.94,190.78 
	274.81,226.78 259.75,217.08 258.86,181.08 297.28,158.99 317.58,159.5 "/>
<polygon class="st0" points="523.49,348.95 523.49,404.1 499.24,428.35 462.73,415.84 462.73,360.56 486.13,335.93 "/>
<polygon id="_x35_4D" class="st0" points="211.49,202.82 211.49,232.27 199.54,238.9 188.81,227.67 132.81,260.18 132.81,277.88 
	122.43,283.5 51.62,242.31 52.3,213.54 141.15,161.8 "/>
<polygon id="ClubPilates" class="st0" points="223.37,264.78 182.52,288.95 181.84,316.18 132.81,287.76 132.81,260.18 
	188.81,227.67 "/>
<polygon id="OHLA" class="st0" points="335.54,348.35 309.49,363.33 309.49,391.25 280.73,374.39 280.73,347.5 306.77,331.16 "/>
<polygon id="Live" class="st0" points="357.66,361.29 332.13,376.27 331.28,403.5 309.49,391.25 309.49,363.33 335.54,348.35 "/>
<polygon id="DentalSpecialities" class="st0" points="374.69,370.99 350.01,387.67 350.01,414.39 331.28,403.5 332.13,376.27 
	357.66,361.29 "/>
<path id="Mari" class="st0" d="M375.37,403.5l0.04,25.62c-0.09-0.17-25.4-14.73-25.4-14.73v-26.72l24.68-16.68l28.49,16.62
	L375.37,403.5z"/>
<polygon class="st0" points="403.28,387.67 375.37,403.5 403.18,387.61 "/>
<polygon class="st0" points="445.24,428.63 445.24,429.12 433.43,435.69 "/>
<polygon id="BoldNation" class="st0" points="445.24,411.18 445.24,428.63 433.43,435.69 433.43,445.65 416.96,455.1 375.41,431.48 
	375.41,429.12 375.37,403.5 403.28,387.67 403.18,387.61 403.81,387.25 "/>
<polygon class="st0" points="403.28,387.67 375.37,403.5 403.18,387.61 "/>
<polygon id="Flippos" class="st0" points="770.03,439.18 770.03,467.27 644.79,539.78 610.07,520.1 610.07,491.9 735.69,419.65 "/>
<polygon id="Eco" class="st0" points="484.58,433.67 458.99,450.35 458.73,450.2 458.72,450.51 458.72,450.52 458.15,477.9 
	433.43,463.35 433.43,435.69 445.24,429.12 445.24,428.63 446.98,427.59 450.37,429.65 463.84,421.73 "/>
<polygon class="st0" points="445.24,428.63 445.24,429.12 433.43,435.69 "/>
<polygon class="st0" points="458.99,450.35 458.73,450.52 458.72,450.52 458.72,450.51 458.73,450.2 "/>
<path id="Furshman" class="st0" d="M507.88,446.88l-0.1,0.07l-0.1,0.07c-0.06,0.04-0.13,0.08-0.2,0.13s-0.15,0.1-0.24,0.15
	l-19.03,11.79c-0.47,0.29-0.92,0.57-1.36,0.84c-0.01,0.02-0.02,0.02-0.04,0.03l-0.06,0.04c-0.46,0.28-0.89,0.55-1.31,0.81
	l-1.69,1.04l-0.78,0.48c-0.19,0.12-0.36,0.22-0.52,0.32l-1.13,0.7l-0.51,27.74l-22.66-13.19l0.57-27.38h0.01l0.26-0.17l25.59-16.68
	L507.88,446.88z"/>
<path class="st0" d="M507.48,447.15c-2.29,1.46-13.66,8.49-20.63,12.78L507.48,447.15z"/>
<path id="Semper" class="st0" d="M495.43,471.52l0.38,28.28l-15-8.71l0.51-27.74l1.13-0.7c0.16-0.1,0.33-0.2,0.52-0.32l0.78-0.48
	l1.69-1.04c0.42-0.26,0.85-0.53,1.31-0.81l0.06-0.04c0.02-0.01,0.03-0.01,0.04-0.03c6.97-4.29,18.34-11.32,20.63-12.78
	c0.07-0.05,0.14-0.09,0.2-0.13l0.1-0.07l0.1-0.07l13.78,8.22L495.43,471.52z"/>
<path class="st0" d="M507.48,447.15c-2.29,1.46-13.66,8.49-20.63,12.78L507.48,447.15z"/>
<polygon id="Yanamode" class="st0" points="516.05,483.46 516.56,511.93 495.81,499.8 495.43,471.52 521.66,455.1 543.88,468.08 "/>
<polygon id="WolffLaw" class="st0" points="533.47,493.67 534.11,522.08 516.56,511.93 516.05,483.46 543.88,468.08 561.43,478.29 
	"/>
<polygon id="BWH" class="st0" points="551.03,503.88 551.54,532.03 534.11,522.08 533.47,493.67 561.43,478.29 578.79,488.31 "/>
<polygon id="OnFleekHair" class="st0" points="596.35,498.2 596.35,525.78 568.84,541.61 551.54,532.03 551.03,503.88 
	578.79,488.31 "/>
<polygon class="st0" points="458.99,450.35 458.73,450.52 458.72,450.52 458.72,450.51 458.73,450.2 "/>
<polygon id="HotWorx" class="st0" points="236.79,279.27 199.64,299.05 199.64,326.85 181.84,316.18 182.52,288.95 223.37,264.78 
	"/>
<polygon id="TheSport" class="st0" points="261.81,306.2 261.81,333.39 237.43,347.5 199.64,326.85 199.64,299.05 236.79,279.27 "/>
<polygon id="MilanoBeautyStudios" class="st0" points="411.69,213.14 411.69,249.39 364.07,276.71 274.81,226.78 274.94,190.78 
	323.32,162.44 "/>
<line class="st1" x1="206.35" y1="353.93" x2="385.43" y2="457.67"/>
<text transform="matrix(0.8483 0.5295 -0.5295 0.8483 279.5688 418.2565)" class="st2 st3 st4">US1</text>
<line class="st1" x1="387.99" y1="170.63" x2="567.08" y2="274.37"/>
<text transform="matrix(0.8573 0.5148 -0.5148 0.8573 464.0381 203.9318)" class="st2 st3 st4">Parking</text>
<line class="st1" x1="39.24" y1="191.26" x2="217.3" y2="85.77"/>
<text transform="matrix(0.8683 -0.496 0.496 0.8683 71.3124 157.6443)" class="st2 st3 st4">Northeast 6th Street</text>
<line class="st1" x1="647.75" y1="557.8" x2="783.57" y2="474.29"/>
<text transform="matrix(0.8533 -0.5215 0.5215 0.8533 680.0106 559.2059)" class="st2 st3 st4">Atlantic Shrares Blv</text>
<line class="st0" x1="642.36" y1="514" x2="784.06" y2="431.39"/>
<line class="st0" x1="642.85" y1="514" x2="643.42" y2="540.85"/>
<line class="st5" x1="609.46" y1="494.49" x2="643.42" y2="514"/>
<line class="st5" x1="417.58" y1="453.55" x2="417.58" y2="427.21"/>
<line class="st5" x1="445.03" y1="411.29" x2="417.58" y2="427.21"/>
<line class="st5" x1="282.38" y1="347.73" x2="417.58" y2="427.21"/>
<line class="st5" x1="570.22" y1="540.51" x2="570.22" y2="514.18"/>
<line class="st5" x1="597.67" y1="498.25" x2="570.22" y2="514.18"/>
<line class="st5" x1="570.22" y1="514.18" x2="433.43" y2="435.69"/>
<line class="st5" x1="238.96" y1="346.8" x2="239.47" y2="321.04"/>
<line class="st5" x1="263.01" y1="306.88" x2="239.47" y2="321.04"/>
<line class="st5" x1="132.81" y1="260.18" x2="239.47" y2="321.04"/>
<line class="st5" x1="122.6" y1="282.97" x2="122.6" y2="255.4"/>
<line class="st5" x1="211.49" y1="202.82" x2="122.6" y2="255.4"/>
<line class="st5" x1="52.3" y1="213.54" x2="122.6" y2="255.4"/>
<line class="st5" x1="241.78" y1="215.93" x2="242.77" y2="180.9"/>
<line class="st5" x1="299.32" y1="146.48" x2="242.77" y2="180.9"/>
<line class="st5" x1="171.03" y1="138.44" x2="242.77" y2="180.9"/>
<line class="st5" x1="364.08" y1="276.71" x2="363.57" y2="242.17"/>
<line class="st5" x1="411.69" y1="213.14" x2="363.57" y2="242.17"/>
<line class="st5" x1="258.86" y1="181.08" x2="363.57" y2="242.17"/>
<line class="st5" x1="499.24" y1="427.21" x2="499.24" y2="372.6"/>
<line class="st5" x1="522.52" y1="349.93" x2="499.24" y2="372.6"/>
<line class="st5" x1="463.7" y1="360.69" x2="499.24" y2="372.6"/>
</svg>
