<?xml version="1.0" encoding="utf-8"?>
<!-- Generator: Adobe Illustrator 28.0.0, SVG Export Plug-In . SVG Version: 6.00 Build 0)  -->
<svg version="1.1" id="Capa_1" xmlns="http://www.w3.org/2000/svg" xmlns:xlink="http://www.w3.org/1999/xlink" x="0px" y="0px"
	 viewBox="0 0 620.3 1424.11" style="enable-background:new 0 0 620.3 1424.11;" xml:space="preserve">
<style type="text/css">
	.st0{fill:#BCBCBC;}
	.st1{opacity:0.3;fill:none;stroke:#000000;stroke-width:0.25;stroke-miterlimit:10;}
	.st2{opacity:0.4;}
	.st3{font-family:'CenturyGothic';}
	.st4{font-size:20.892px;}
	.st5{opacity:0.3;}
</style>
<path id="OHLA" class="st0" d="M162.7,595.25h-51.96c-2.52,0-4.57-2.04-4.57-4.57v-30.15c0-2.52,2.04-4.57,4.57-4.57h51.96
	c2.52,0,4.57,2.04,4.57,4.57v30.15C167.27,593.2,165.22,595.25,162.7,595.25z"/>
<path id="Live" class="st0" d="M162.7,661.54h-51.96c-2.52,0-4.57-2.04-4.57-4.57v-51.96c0-2.52,2.04-4.57,4.57-4.57h51.96
	c2.52,0,4.57,2.04,4.57,4.57v51.96C167.27,659.5,165.22,661.54,162.7,661.54z"/>
<path id="DentalSpecialities" class="st0" d="M162.68,707h-51.96c-2.52,0-4.57-2.04-4.57-4.57v-31.32c0-2.52,2.04-4.57,4.57-4.57
	h51.96c2.52,0,4.57,2.04,4.57,4.57v31.32C167.24,704.96,165.2,707,162.68,707z"/>
<path id="Nari" class="st0" d="M162.68,772.06h-51.96c-2.52,0-4.57-2.04-4.57-4.57v-52.24c0-2.52,2.04-4.57,4.57-4.57h51.96
	c2.52,0,4.57,2.04,4.57,4.57v52.24C167.24,770.02,165.2,772.06,162.68,772.06z"/>
<path id="BoldNation" class="st0" d="M162.68,872.32h-51.96c-2.52,0-4.57-2.04-4.57-4.57v-88.1c0-2.52,2.04-4.57,4.57-4.57h51.96
	c2.52,0,4.57,2.04,4.57,4.57v88.1C167.24,870.27,165.2,872.32,162.68,872.32z"/>
<path id="Eco" class="st0" d="M167.27,1000.97v-16.06c0-0.44-0.08-0.85-0.2-1.25c0.09-0.37,0.16-0.74,0.16-1.14v-17.6
	c0-2.52-2.04-4.57-4.57-4.57h-25.91v-12.66c0-2.52-2.04-4.57-4.57-4.57h-21.41c-2.52,0-4.57,2.04-4.57,4.57v17.23v9.41v8.19
	c0,0.44,0.08,0.85,0.2,1.25c-0.09,0.37-0.16,0.74-0.16,1.14v16.06c0,2.52,2.04,4.57,4.57,4.57h51.89
	C165.22,1005.54,167.27,1003.49,167.27,1000.97z"/>
<path id="Furshman" class="st0" d="M162.6,1045.53h-51.89c-2.52,0-4.57-2.04-4.57-4.57v-27.71c0-2.52,2.04-4.57,4.57-4.57h51.89
	c2.52,0,4.57,2.04,4.57,4.57v27.71C167.17,1043.49,165.12,1045.53,162.6,1045.53z"/>
<path id="Semper" class="st0" d="M162.7,1070.11h-51.89c-2.52,0-4.57-2.04-4.57-4.57v-11.27c0-2.52,2.04-4.57,4.57-4.57h51.89
	c2.52,0,4.57,2.04,4.57,4.57v11.27C167.27,1068.06,165.22,1070.11,162.7,1070.11z"/>
<path id="Yanamode" class="st0" d="M162.6,1109.53h-51.89c-2.52,0-4.57-2.04-4.57-4.57v-26.32c0-2.52,2.04-4.57,4.57-4.57h51.89
	c2.52,0,4.57,2.04,4.57,4.57v26.32C167.17,1107.49,165.12,1109.53,162.6,1109.53z"/>
<path id="OnFleekHair" class="st0" d="M167.21,1247.49v-31.84c0-0.16-0.03-0.31-0.07-0.46c0.03-0.15,0.07-0.3,0.07-0.46v-4.31
	c0-1.7-2.04-3.07-4.57-3.07h-51.89c-2.52,0-4.57,1.38-4.57,3.07v4.31c0,0.16,0.03,0.31,0.07,0.46c-0.03,0.15-0.07,0.3-0.07,0.46
	v31.84c0,1.7,2.04,3.07,4.57,3.07h51.89C165.17,1250.57,167.21,1249.19,167.21,1247.49z"/>
<path id="BWH" class="st0" d="M166.56,1200.33v-31.84c0-0.16-0.03-0.31-0.07-0.46c0.03-0.15,0.07-0.3,0.07-0.46v-4.31
	c0-1.7-2.04-3.07-4.57-3.07H110.1c-2.52,0-4.57,1.38-4.57,3.07v4.31c0,0.16,0.03,0.31,0.07,0.46c-0.03,0.15-0.07,0.3-0.07,0.46
	v31.84c0,1.7,2.04,3.07,4.57,3.07h51.89C164.51,1203.41,166.56,1202.03,166.56,1200.33z"/>
<path id="WolffLaw" class="st0" d="M166.56,1153.76v-31.84c0-0.16-0.03-0.31-0.07-0.46c0.03-0.15,0.07-0.3,0.07-0.46v-4.31
	c0-1.7-2.04-3.07-4.57-3.07H110.1c-2.52,0-4.57,1.38-4.57,3.07v4.31c0,0.16,0.03,0.31,0.07,0.46c-0.03,0.15-0.07,0.3-0.07,0.46
	v31.84c0,1.7,2.04,3.07,4.57,3.07h51.89C164.51,1156.84,166.56,1155.46,166.56,1153.76z"/>
<path id="Flippos" class="st0" d="M475.61,1335.43v-69.5c0-2.52-2.04-4.57-4.57-4.57H190.09c-2.52,0-4.57,2.04-4.57,4.57v6.68v62.32
	v0.49c0,2.52,2.04,4.57,4.57,4.57h41.39h34.24h12.66h24.16h12.25h10.72h13.1h13.11h12.47h10.72h96.14
	C473.56,1339.99,475.61,1337.95,475.61,1335.43z"/>
<line class="st1" x1="546.03" y1="18.37" x2="106.04" y2="18.37"/>
<line class="st1" x1="546.03" y1="67.78" x2="106.04" y2="67.78"/>
<line class="st1" x1="546.03" y1="1357.2" x2="106.04" y2="1357.2"/>
<line class="st1" x1="546.03" y1="1406.61" x2="106.04" y2="1406.61"/>
<text transform="matrix(1 0 0 1 217.7094 49.5659)" class="st2 st3 st4">Northeast 6th Street</text>
<text transform="matrix(1 0 0 1 217.7094 1390.1362)" class="st2 st3 st4">Atlantic Shares Blv</text>
<g>
	<line class="st1" x1="71.18" y1="1336.47" x2="71.18" y2="82.61"/>
	<line class="st1" x1="25.25" y1="1336.47" x2="25.25" y2="82.61"/>
	<text transform="matrix(6.123234e-17 1 -1 6.123234e-17 40.5258 635.2827)" class="st2 st3 st4">US 1 </text>
</g>
<g>
	<text transform="matrix(6.123234e-17 1 -1 6.123234e-17 577.1 674.8569)" class="st5 st3 st4">parking</text>
	<line class="st1" x1="593.17" y1="667.3" x2="572.57" y2="667.3"/>
	<line class="st1" x1="593.17" y1="658.59" x2="572.57" y2="658.59"/>
	<line class="st1" x1="593.17" y1="649.89" x2="572.57" y2="649.89"/>
	<line class="st1" x1="593.17" y1="641.18" x2="572.57" y2="641.18"/>
	<line class="st1" x1="593.17" y1="632.48" x2="572.57" y2="632.48"/>
	<line class="st1" x1="593.17" y1="623.77" x2="572.57" y2="623.77"/>
	<line class="st1" x1="593.17" y1="615.07" x2="572.57" y2="615.07"/>
	<line class="st1" x1="593.17" y1="606.36" x2="572.57" y2="606.36"/>
	<line class="st1" x1="593.17" y1="597.66" x2="572.57" y2="597.66"/>
	<line class="st1" x1="593.17" y1="588.95" x2="572.57" y2="588.95"/>
	<line class="st1" x1="593.17" y1="580.25" x2="572.57" y2="580.25"/>
	<line class="st1" x1="593.17" y1="571.54" x2="572.57" y2="571.54"/>
	<line class="st1" x1="593.17" y1="562.84" x2="572.57" y2="562.84"/>
	<line class="st1" x1="593.17" y1="554.13" x2="572.57" y2="554.13"/>
	<line class="st1" x1="593.17" y1="545.43" x2="572.57" y2="545.43"/>
	<line class="st1" x1="593.17" y1="536.72" x2="572.57" y2="536.72"/>
	<line class="st1" x1="593.17" y1="528.02" x2="572.57" y2="528.02"/>
	<line class="st1" x1="593.17" y1="519.31" x2="572.57" y2="519.31"/>
	<line class="st1" x1="593.17" y1="510.61" x2="572.57" y2="510.61"/>
	<line class="st1" x1="593.17" y1="501.9" x2="572.57" y2="501.9"/>
	<line class="st1" x1="593.17" y1="792.65" x2="572.57" y2="792.65"/>
	<line class="st1" x1="593.17" y1="783.95" x2="572.57" y2="783.95"/>
	<line class="st1" x1="593.17" y1="775.24" x2="572.57" y2="775.24"/>
	<line class="st1" x1="593.17" y1="766.54" x2="572.57" y2="766.54"/>
	<line class="st1" x1="593.17" y1="757.83" x2="572.57" y2="757.83"/>
	<line class="st1" x1="593.17" y1="836.18" x2="572.57" y2="836.18"/>
	<line class="st1" x1="593.17" y1="827.47" x2="572.57" y2="827.47"/>
	<line class="st1" x1="593.17" y1="818.77" x2="572.57" y2="818.77"/>
	<line class="st1" x1="593.17" y1="810.06" x2="572.57" y2="810.06"/>
	<line class="st1" x1="593.17" y1="801.36" x2="572.57" y2="801.36"/>
	<line class="st1" x1="593.17" y1="871" x2="572.57" y2="871"/>
	<line class="st1" x1="593.17" y1="862.29" x2="572.57" y2="862.29"/>
	<line class="st1" x1="593.17" y1="853.59" x2="572.57" y2="853.59"/>
	<line class="st1" x1="593.17" y1="844.88" x2="572.57" y2="844.88"/>
	<line class="st1" x1="593.17" y1="923.23" x2="572.57" y2="923.23"/>
	<line class="st1" x1="593.17" y1="914.52" x2="572.57" y2="914.52"/>
	<line class="st1" x1="593.17" y1="905.82" x2="572.57" y2="905.82"/>
	<line class="st1" x1="593.17" y1="897.11" x2="572.57" y2="897.11"/>
	<line class="st1" x1="593.17" y1="888.41" x2="572.57" y2="888.41"/>
	<line class="st1" x1="593.17" y1="879.7" x2="572.57" y2="879.7"/>
</g>
<path id="Genias" class="st0" d="M503.66,339.09v-37.36c0-0.04-0.01-0.07-0.01-0.1c0.01-0.9,0.06-1.8,0.17-2.69
	c0.35-2.78-0.52-4.79-2.44-6.8c-5.26-5.5-10.39-11.14-15.41-16.87c-1.75-2-3.62-3-6.29-2.99c-27.95,0.04-55.9,0.02-83.85,0.04
	c-3.9,0-4.43,0.53-4.44,4.4c-0.04,8.44-0.02,16.88-0.01,25.31c0,0.71,0.02,1.41,0.13,2.1h0.28v34.96c0,2.56,2.07,4.63,4.63,4.63
	h102.61C501.59,343.73,503.66,341.65,503.66,339.09z"/>
<path id="MilanoBeautyStudio" class="st0" d="M503.2,479.21v-52.75c0.14-0.38,0.23-0.77,0.23-1.19v-71.34c0-2.34-2.3-4.24-5.13-4.24
	H396.69c-2.83,0-5.13,1.9-5.13,4.24v53.85c-0.14,0.36-0.23,0.73-0.23,1.13v70.29c0,2.08,2.04,3.78,4.57,3.78h102.74
	C501.16,482.98,503.2,481.29,503.2,479.21z"/>
<path id="JuventusAcademyMiami" class="st0" d="M503.68,531.25v-17.58c0.14-0.13,0.23-0.26,0.23-0.4V489.5
	c0-0.78-2.3-1.41-5.13-1.41H397.17c-2.83,0-5.13,0.63-5.13,1.41v17.95c-0.14,0.12-0.23,0.24-0.23,0.38v23.43
	c0,0.69,2.04,1.26,4.57,1.26h102.74C501.64,532.51,503.68,531.95,503.68,531.25z"/>
<path id="Zenzone" class="st0" d="M515.52,250.31H380.21c-2.52,0-4.57-2.04-4.57-4.57v-65.3c0-2.52,2.04-4.57,4.57-4.57h135.31
	c2.52,0,4.57,2.04,4.57,4.57v65.3C520.08,248.27,518.04,250.31,515.52,250.31z"/>
<path id="_x35_4D" class="st0" d="M309.84,247.33h-197.6c-2.52,0-4.57-2.04-4.57-4.57V88.79c0-2.52,2.04-4.57,4.57-4.57h197.6
	c2.52,0,4.57,2.04,4.57,4.57v153.98C314.41,245.29,312.36,247.33,309.84,247.33z"/>
<path id="ClubPilates" class="st0" d="M201.77,377.37h-89.53c-2.52,0-4.57-2.04-4.57-4.57l-0.38-97.16c0-2.52,2.04-4.57,4.57-4.57
	L233.45,270c2.52,0,4.57,2.04,4.57,4.57l-31.68,98.24C206.34,375.33,204.3,377.37,201.77,377.37z"/>
<path id="TheSpot" class="st0" d="M153.6,505h-43.21c-2.12,0-3.84-1.32-3.84-2.95l0.63-72.1c0-1.63,1.72-2.95,3.84-2.95l72.96-0.7
	c2.12,0,3.84,1.32,3.84,2.95l-30.38,72.8C157.44,503.68,155.72,505,153.6,505z"/>
<path id="HotWorx" class="st0" d="M182.53,420.68h-71.41c-2.52,0-4.57-0.63-4.57-1.4l0.75-34.32c0-0.78,2.04-1.4,4.57-1.4
	l86.81-0.33c2.52,0,4.57,0.63,4.57,1.4l-16.15,34.65C187.1,420.05,185.05,420.68,182.53,420.68z"/>
<path id="LaMaisonH" class="st0" d="M514.43,84.23h-55.88h-6.35h-72.94c-2.52,0-4.57,2.04-4.57,4.57v78.06
	c0,2.52,2.04,4.57,4.57,4.57h79.3c2.52,0,4.57-2.04,4.57-4.57v-53.57h51.32c2.52,0,4.57-2.04,4.57-4.57V88.79
	C519,86.27,516.95,84.23,514.43,84.23z"/>
<path class="st0" d="M306.95,903.59l-63.92,16.35c-2.44,0.62-4.93-0.85-5.55-3.29l-14.82-57.94c-0.62-2.44,0.85-4.93,3.29-5.55
	l63.92-16.35c2.44-0.62,4.93,0.85,5.55,3.29l14.82,57.94C310.87,900.48,309.4,902.97,306.95,903.59z"/>
</svg>
